<?xml version="1.0" standalone="no"?>
<!DOCTYPE svg PUBLIC "-//W3C//DTD SVG 20010904//EN"
 "http://www.w3.org/TR/2001/REC-SVG-20010904/DTD/svg10.dtd">
<svg version="1.0" xmlns="http://www.w3.org/2000/svg"
 width="300.000000pt" height="300.000000pt" viewBox="0 0 300.000000 300.000000"
 preserveAspectRatio="xMidYMid meet">

<g transform="translate(0.000000,300.000000) scale(0.100000,-0.100000)"
fill="#000000" stroke="none">
<path d="M1424 2120 c-179 -36 -310 -204 -329 -420 -4 -42 -3 -86 3 -100 9
-23 12 -17 36 60 14 47 29 108 32 135 10 77 15 80 60 44 21 -17 64 -43 94 -58
48 -23 67 -26 155 -25 109 0 171 19 277 84 28 17 51 30 52 28 1 -2 8 -36 14
-77 13 -78 54 -182 80 -203 13 -12 14 -1 9 92 -6 113 -27 188 -71 258 -90 143
-251 214 -412 182z"/>
<path d="M1147 1622 c-13 -14 -17 -37 -17 -99 0 -111 2 -113 162 -113 144 0
158 7 158 78 0 41 25 82 50 82 25 0 50 -41 50 -83 0 -70 14 -77 162 -77 156 0
158 1 158 118 0 116 3 114 -184 108 -186 -6 -186 -6 -372 0 -138 5 -151 3
-167 -14z"/>
<path d="M1170 831 c-145 -47 -259 -104 -305 -151 -32 -32 -39 -51 -75 -195
-31 -126 -37 -162 -27 -172 24 -23 163 -92 257 -126 165 -61 279 -80 480 -80
143 0 194 4 280 22 123 26 266 78 370 133 114 61 111 55 89 146 -37 161 -66
235 -106 274 -50 48 -172 107 -312 152 -139 44 -147 44 -154 7 -8 -38 -54 -91
-94 -107 -42 -18 -117 -18 -152 1 -38 19 -81 71 -88 106 -7 38 -20 37 -163
-10z"/>
</g>
</svg>
